<?xml version="1.0" standalone="no"?>
<!DOCTYPE svg PUBLIC "-//W3C//DTD SVG 20010904//EN"
 "http://www.w3.org/TR/2001/REC-SVG-20010904/DTD/svg10.dtd">
<svg version="1.0" xmlns="http://www.w3.org/2000/svg"
 width="512.000000pt" height="512.000000pt" viewBox="0 0 512.000000 512.000000"
 preserveAspectRatio="xMidYMid meet">

<g transform="translate(0.000000,512.000000) scale(0.100000,-0.100000)"
fill="#000000" stroke="none">
<path d="M3548 5104 c-427 -77 -753 -430 -797 -863 -24 -233 38 -464 177 -660
l45 -64 -36 -112 c-44 -133 -48 -200 -14 -260 33 -60 93 -88 178 -82 59 4 82
12 204 77 l138 72 81 -18 c116 -25 303 -24 419 5 299 72 547 274 673 546 66
143 79 210 78 405 0 162 -2 182 -28 264 -148 483 -627 779 -1118 690z m379
-164 c382 -96 646 -455 620 -843 -23 -338 -241 -618 -567 -728 -82 -28 -112
-33 -225 -37 -109 -3 -144 -1 -218 17 -49 12 -97 21 -108 21 -11 0 -83 -34
-160 -76 -154 -84 -211 -99 -217 -58 -2 12 17 85 43 162 28 86 43 147 38 158
-4 11 -29 46 -55 79 -57 70 -129 212 -155 305 -13 48 -18 102 -18 210 0 125 3
155 23 220 101 321 361 544 686 590 84 12 220 3 313 -20z"/>
<path d="M3345 4450 c-48 -19 -50 -30 -53 -269 -4 -252 1 -304 29 -332 27 -27
75 -24 104 6 23 22 25 32 25 115 l0 90 125 0 125 0 0 -89 c0 -74 3 -92 21
-115 27 -34 77 -36 107 -3 21 23 22 30 22 288 0 287 -2 300 -55 313 -29 7 -79
-15 -89 -39 -3 -9 -6 -57 -6 -106 l0 -89 -125 0 -125 0 0 89 c0 79 -3 93 -22
115 -27 29 -55 38 -83 26z"/>
<path d="M4100 4447 c-46 -23 -50 -45 -50 -305 0 -194 3 -249 15 -271 24 -48
81 -56 120 -16 l25 24 0 260 c0 256 0 260 -22 285 -29 31 -57 39 -88 23z"/>
<path d="M2033 4010 c-99 -20 -197 -107 -229 -202 -49 -147 29 -316 172 -375
l44 -18 0 -147 0 -147 -47 -6 c-335 -41 -582 -154 -788 -360 -88 -87 -177
-208 -228 -310 -65 -130 -120 -334 -133 -492 l-7 -81 -42 -16 c-58 -23 -117
-75 -146 -131 l-24 -47 -53 5 c-270 27 -511 -206 -489 -472 7 -87 38 -166 93
-241 l44 -60 0 -403 c0 -450 0 -451 71 -489 32 -17 104 -18 1651 -18 889 0
1624 3 1633 6 42 16 45 45 45 427 l0 365 93 4 c82 3 102 8 171 41 158 75 255
224 256 393 l0 52 214 209 214 210 66 5 c126 10 243 93 301 212 23 48 30 76
33 147 5 101 -11 162 -62 237 l-33 47 84 120 c124 177 123 171 123 360 0 231
-16 255 -167 255 -76 0 -83 -2 -102 -26 -46 -59 -7 -124 74 -124 l45 0 0 -118
0 -118 -90 -132 -90 -131 -43 16 c-54 20 -188 20 -243 0 l-42 -15 -91 134 -91
135 0 114 0 115 44 0 c59 0 96 29 96 76 0 58 -26 74 -120 74 -145 0 -162 -21
-168 -202 -7 -221 -6 -225 142 -439 l69 -99 -21 -23 c-34 -36 -73 -133 -79
-194 l-5 -58 -195 -196 -196 -197 -104 2 -105 1 -15 30 c-24 48 -91 110 -143
135 -48 23 -49 23 -55 79 -29 280 -111 512 -241 687 -191 256 -494 438 -809
483 -44 7 -95 14 -112 17 l-33 5 0 148 0 148 45 17 c57 22 124 87 155 151 37
74 35 179 -3 257 -60 123 -202 194 -334 168z m65 -188 c41 -73 37 -168 -9
-234 -18 -24 -23 -26 -47 -17 -55 21 -102 86 -102 141 0 42 40 108 79 128 50
26 54 25 79 -18z m119 -863 c452 -50 796 -318 932 -724 33 -98 61 -242 61
-311 l0 -44 -490 0 -491 0 -24 -25 c-32 -31 -33 -74 -2 -103 22 -21 27 -21
577 -24 518 -3 557 -4 585 -21 17 -10 39 -31 50 -45 20 -26 20 -45 23 -770 l2
-742 -1350 0 -1350 0 2 739 c3 734 3 740 24 768 25 34 68 60 109 67 17 2 263
5 548 5 503 1 518 2 537 21 27 27 26 77 -2 107 l-21 23 -484 0 c-439 0 -483 1
-483 16 0 54 36 243 62 324 58 182 140 312 282 448 235 222 565 329 903 291z
m2449 -658 c136 -62 176 -245 78 -360 -102 -119 -295 -102 -379 33 -26 42 -30
59 -30 115 1 100 51 178 140 217 44 19 143 17 191 -5z m-376 -482 c19 -19 46
-43 60 -53 l25 -17 -149 -147 -149 -146 -26 34 c-14 19 -45 54 -70 78 l-45 43
145 145 c142 143 144 144 159 122 8 -13 30 -39 50 -59z m-3712 -576 l2 -283
-26 -6 c-42 -11 -124 4 -180 31 -182 89 -214 333 -62 470 61 55 115 74 198 72
l65 -2 3 -282z m3227 260 c50 -26 121 -101 142 -151 24 -55 22 -166 -3 -223
-30 -65 -77 -114 -138 -144 -56 -27 -138 -42 -180 -31 l-26 6 0 286 0 287 83
-5 c57 -3 94 -11 122 -25z m-3305 -783 c6 -9 10 -135 10 -292 l0 -278 -80 0
-80 0 0 303 0 303 70 -10 c42 -7 75 -17 80 -26z"/>
<path d="M1560 2603 c-63 -23 -151 -113 -173 -177 -39 -115 -14 -221 73 -308
45 -45 69 -60 115 -73 197 -58 385 79 385 280 0 206 -203 347 -400 278z m182
-159 c30 -16 68 -80 68 -115 0 -38 -38 -103 -71 -123 -41 -24 -108 -24 -149 0
-31 19 -70 85 -70 120 1 33 37 102 61 115 58 30 105 31 161 3z"/>
<path d="M2400 2603 c-27 -10 -67 -38 -102 -73 -68 -68 -94 -138 -85 -230 26
-294 427 -370 557 -107 72 146 19 315 -121 392 -67 36 -178 44 -249 18z m181
-159 c74 -38 90 -149 31 -212 -99 -106 -280 -9 -242 130 25 90 122 128 211 82z"/>
<path d="M1124 1440 c-28 -11 -54 -48 -54 -78 0 -12 11 -34 25 -47 24 -25 25
-25 218 -25 181 0 196 1 221 21 46 36 32 108 -25 128 -38 13 -354 14 -385 1z"/>
<path d="M2671 1439 c-55 -22 -68 -83 -26 -124 24 -25 25 -25 220 -25 195 0
196 0 220 25 43 42 28 103 -29 125 -34 13 -352 12 -385 -1z"/>
<path d="M1147 1018 c-68 -40 -77 -74 -77 -304 0 -187 1 -203 23 -244 13 -26
36 -53 57 -65 33 -19 52 -20 413 -20 l379 0 19 24 c28 35 25 85 -7 110 -26 20
-38 21 -375 21 l-349 0 0 175 0 175 865 0 865 0 0 -175 0 -175 -365 0 -366 0
-24 -25 c-33 -32 -33 -74 1 -106 l26 -24 381 0 c367 0 383 1 417 21 19 11 45
35 57 54 22 32 23 41 23 255 0 214 -1 223 -23 256 -49 73 12 69 -997 69 l-905
0 -38 -22z"/>
</g>
</svg>
